<svg xmlns="http://www.w3.org/2000/svg" width="317.144" height="134.243" viewBox="0 0 317.144 134.243">
  <g id="leaf" transform="translate(0.003 0.001)">
    <path id="Tracciato_1" data-name="Tracciato 1" d="M151.589,132.757c-52.59,0-105.18-.1-157.786.165a.828.828,0,0,1-.6-.253.851.851,0,0,1-.238-.608q.44-66.69,0-133.381,158.57.231,317.144,0h0q-.294,67.1,0,134.21C257.226,132.69,204.358,132.757,151.589,132.757Z" transform="translate(7.03 1.32)" fill="rgba(0,0,0,0)"/>
    <path id="Tracciato_2" data-name="Tracciato 2" d="M.11,117.49a83.471,83.471,0,0,0,56.969-5.263c1.886-.88,5.723-1.029,4.838-4.35-.77-2.955-3.608-.93-5.608-.963-4.92-.1-7.56-5.163-5.346-11.024A9.433,9.433,0,0,1,54.8,90.81c9.118-4.1,13.906-11.888,18.038-20.354a6.243,6.243,0,0,1,5.9-3.769c2.87.15,2.738,2.839,3.2,4.981.541,2.507,1.394,5.163,4.673,4.35,2.821-.681,3.427-3.189,3.427-5.878,0-6.342-.18-12.7.115-19.043.262-5.429,3.493-9.215,8.1-11.621,3.477-1.776,6.9-.814,9.841,1.66,3.28,2.772,3.689,6.525,3.28,10.509-.23,2.374.361,4.815,2.673,5.445,2.9.814,4.378-1.66,5.411-3.968,2.771-6.157,1.64-13.016,3.181-19.458,2.575-10.46,8.2-17.831,18.514-21.069,7.872-2.44,12.922,1.544,12.922,9.845a21.289,21.289,0,0,0-.213,2.424c.476,3.453-3.409,8.683,1.984,9.962,4.575,1.079,7.625-3.321,9.692-7.371,3.591-7.092,7.019-14.261,11.938-20.6A17.076,17.076,0,0,1,190.056.127c8.97-.83,14.25,6.093,11.479,14.81-1.46,4.549-6.248,10.426-1.952,13.564,5.018,3.683,8.724-3.553,12.791-6.259,7.625-5.064,15.5-8.2,24.5-4.682,5.69,2.208,8.906,5.663,3.559,11.621-1.64,1.776-3.772,3.885-2.493,6.508,1.539,3.171,4.92,1.793,7.4,1.776,9.331,0,18.039.963,22.958,10.543,4.3,8.3,3,13.282-4.919,17.964a59.833,59.833,0,0,1-5.838,2.906c-10.675,4.848-10.675,4.831-6.133,15.324,3.591,8.3.443,14.112-8.938,16.254-8.773,1.992-16.713-.249-24.057-5.18a31.7,31.7,0,0,0-14.184-5.86c-2.493-.266-5.428.216-6.724,2.191-1.738,2.656,1.279,4.25,2.788,6.01.722.847,1.539,1.66,2.247,2.424,2.969,3.47,7.183,6.641,4.542,12.1-2.788,5.795-8.1,6.01-13.4,5.313-10.593-1.411-19.3-6.923-27.468-13.481-3.837-3.072-7.724-6.093-11.741-8.9a4.876,4.876,0,0,0-6.724.349c-2.279,2.309-.9,4.366.312,6.641,5.247,9.879,2.181,14.859-8.888,15.291-7.757.3-13.316-4.018-19.187-8.052-2.509-1.71-5.411-4.748-8.544-2.789s-.148,4.981,0,7.6c.476,6.641-3.573,8.1-8.3,6.11a31.019,31.019,0,0,0-25.27-.282c-6.182,2.54-9.4-1.909-11.249-7.488-17.874,12.469-37.307,15.689-57.986,13.016C4.554,124.944.34,124.263.11,117.49Z" transform="translate(11.353 2.155)" fill="#00bf59"/>
    <path id="Tracciato_3" data-name="Tracciato 3" d="M72.528,64.985c-7.147.819-12.347,7.45-19.956,6.808C90.9,47.709,132.386,34.4,178.853,34.864c-3.211,3.9-6.856,2.584-9.939,2.778-33.446,2.007-65.237,9.971-94.877,25.882a8.446,8.446,0,0,0-1.6,1.605Z" transform="translate(46.044 25.819)" fill="#262626"/>
    <path id="Tracciato_4" data-name="Tracciato 4" d="M86.52,48.469c12.556-4.4,33.477,3.42,39.9,14.948C114.313,55.277,102.223,47.1,86.52,48.469Z" transform="translate(66.811 33.563)" fill="#262626"/>
    <path id="Tracciato_5" data-name="Tracciato 5" d="M118.9,14.19c2.072,9.634-8.606,27.488-18.3,30.842C109.126,36.171,114.344,25.365,118.9,14.19Z" transform="translate(75.546 11.756)" fill="#262626"/>
    <path id="Tracciato_6" data-name="Tracciato 6" d="M90.61,23.68A47.141,47.141,0,0,1,80.35,52.308,128.834,128.834,0,0,0,88.86,20.79C90.529,21.125,89.855,22.83,90.61,23.68Z" transform="translate(62.58 16.206)" fill="#262626"/>
    <path id="Tracciato_7" data-name="Tracciato 7" d="M63.531,33c5.636,7.594,4.174,19.107-3.661,25.834C63.707,49.713,66.357,41.686,63.531,33Z" transform="translate(49.539 24.301)" fill="#262626"/>
    <path id="Tracciato_8" data-name="Tracciato 8" d="M64.9,53.721c8.027,1.718,16.218,3.4,22.155,9.971-6.792-4.64-16.12-3.565-22-10.067Z" transform="translate(52.847 37.645)" fill="#262626"/>
    <path id="Tracciato_9" data-name="Tracciato 9" d="M87.419,24.69l-1.75-2.89c0-1.108-.45-3.307,1.155-2.5S87.453,22.811,87.419,24.69Z" transform="translate(65.855 14.796)" fill="#262626"/>
    <path id="Tracciato_10" data-name="Tracciato 10" d="M87.419,24.69l-1.75-2.89c0-1.108-.45-3.307,1.155-2.5S87.453,22.811,87.419,24.69Z" transform="translate(65.855 14.796)" fill="#262626"/>
  </g>
</svg>
